PathFileType	4	(X/Y/Z)	C:\My Captures\DataSMARTClinic\0056~004 ID\0056~aa~STRATO3\Standing_ID_04_STRATO.trc
DataRate	CameraRate	NumFrames	NumMarkers	Units	OrigDataRate	OrigDataStartFrame	OrigNumFrames
250.00	250.00	10	22	mm	250.00	971	2621
Frame#	Time	r.should			l.should			c7			r.asis			l.asis			sacrum			r.bar1			l.bar1			r.knee1			l.knee1			r.bar2			r.mall			l.bar2			l.mall			r.met			r.heel			l.heel			l.met			r.mallm			l.mallm			r.kneem			l.kneem			
		X1	Y1	Z1	X2	Y2	Z2	X3	Y3	Z3	X4	Y4	Z4	X5	Y5	Z5	X6	Y6	Z6	X7	Y7	Z7	X8	Y8	Z8	X9	Y9	Z9	X10	Y10	Z10	X11	Y11	Z11	X12	Y12	Z12	X13	Y13	Z13	X14	Y14	Z14	X15	Y15	Z15	X16	Y16	Z16	X17	Y17	Z17	X18	Y18	Z18	X19	Y19	Z19	X20	Y20	Z20	X21	Y21	Z21	X22	Y22	Z22	

970	3.880000	871.530592	1253.561258	361.496657	857.446849	1258.262396	79.526760	777.522266	1314.133883	219.640791	976.090729	881.911755	343.692839	979.097664	874.661803	104.509808	734.474242	907.504499	209.349945	868.582010	801.279843	426.732898	886.064291	771.324039	25.666103	902.921379	463.591754	410.014093	884.165704	471.846461	79.438500	880.520105	402.159512	417.045116	830.112219	71.025684	438.075960	867.188931	397.866458	78.904130	854.033828	72.049156	91.741957	969.441056	43.459475	433.882385	777.916551	53.717479	390.748888	796.966076	57.093713	126.306981	985.278308	43.933362	114.770763	857.834995	69.408968	361.553729	866.516948	72.720103	168.965101	897.124648	447.903514	262.226969	856.508970	447.164536	222.532123	
971	3.884000	871.541500	1253.544450	361.496896	857.447088	1258.255959	79.515241	777.546525	1314.119577	219.644293	976.086617	881.905675	343.699336	979.098022	874.660611	104.514800	734.480202	907.505512	209.346980	868.631244	801.325798	426.760107	886.057138	771.309793	25.670564	902.921677	463.585973	410.008043	884.168565	471.839577	79.450369	880.531251	402.161241	417.048454	830.107987	71.018629	438.071609	867.191195	397.862107	78.904435	854.357302	71.969986	91.879569	969.447255	43.457184	433.886230	777.931273	53.703852	390.755951	797.123373	56.098036	125.077337	985.275984	43.930534	114.763260	857.811689	69.397457	361.553162	866.518021	72.717905	168.964237	897.099972	447.904706	262.220174	856.517315	447.157264	222.517744	
972	3.888000	871.546209	1253.548741	361.506790	857.455492	1258.244514	79.511583	777.552485	1314.105511	219.652951	976.096272	881.904662	343.704343	979.093075	874.642193	104.512997	734.471440	907.507777	209.342778	868.646622	801.326811	426.753581	886.063635	771.310568	25.673369	902.924955	463.574946	410.009980	884.170711	471.836686	79.455130	880.541801	402.162224	417.059481	830.101907	71.010508	438.075572	867.201567	397.858113	78.901961	853.878677	72.085574	91.661684	969.459414	43.448579	433.875173	777.945399	53.690970	390.744627	796.881437	57.601914	126.945078	985.277116	43.921500	114.765495	857.820868	69.394551	361.578345	866.514087	72.712146	168.977350	897.097409	447.894931	262.219369	856.528580	447.152376	222.525328	
973	3.892000	871.580720	1253.550649	361.500204	857.458174	1258.231163	79.509541	777.588248	1314.078569	219.662502	976.103306	881.905973	343.702614	979.082882	874.633312	104.521826	734.474123	907.502353	209.344864	868.675768	801.326632	426.757634	886.069834	771.308184	25.673620	902.926624	463.568926	410.017699	884.189725	471.835643	79.448327	880.530596	402.154684	417.064577	830.098629	71.012005	438.081145	867.196798	397.858083	78.903139	853.768051	72.124563	91.595173	969.473779	43.449670	433.870196	777.930081	53.675614	390.739381	796.824157	57.973586	127.412245	985.274911	43.920018	114.771836	857.828856	69.399327	361.576498	866.500795	72.704628	168.978378	897.116840	447.886169	262.206495	856.524587	447.154969	222.529829	
974	3.896000	871.581197	1253.540516	361.494482	857.462287	1258.210063	79.508409	777.610064	1314.078450	219.645739	976.100683	881.894708	343.705982	979.092360	874.625027	104.514539	734.495819	907.492280	209.333986	868.695021	801.346302	426.767737	886.084318	771.303833	25.672382	902.938962	463.557631	410.014540	884.213328	471.838981	79.442620	880.528092	402.138293	417.066872	830.107868	71.014144	438.084543	867.202938	397.850454	78.901179	854.013324	72.057635	91.713905	969.482481	43.454714	433.872879	777.943492	53.680852	390.740097	796.929121	57.192128	126.450971	985.270858	43.917309	114.782967	857.817411	69.394767	361.557931	866.500258	72.694182	168.985382	897.128105	447.890550	262.211502	856.505454	447.153330	222.523183	
975	3.900000	871.568561	1253.524542	361.488611	857.470572	1258.194923	79.502463	777.630091	1314.091086	219.631508	976.100981	881.886482	343.722671	979.109764	874.625921	104.516119	734.498978	907.494307	209.326878	868.667960	801.350951	426.786304	886.098206	771.311343	25.673252	902.935207	463.551939	410.014033	884.237885	471.842200	79.449199	880.541563	402.129203	417.059362	830.109537	71.010567	438.089311	867.218554	397.852212	78.892738	854.387343	71.962953	91.885641	969.486773	43.443564	433.867663	777.950168	53.675301	390.747488	797.099352	56.108978	125.131682	985.270739	43.912254	114.788741	857.852101	69.404773	361.563921	866.510212	72.689369	168.985382	897.115946	447.900981	262.220383	856.510758	447.154999	222.528487	
976	3.904000	871.555686	1253.516674	361.503899	857.471704	1258.181810	79.496399	777.637780	1314.074278	219.637528	976.083875	881.862342	343.724072	979.099989	874.623299	104.538441	734.515846	907.493591	209.322184	868.680239	801.347077	426.766515	886.115253	771.315217	25.669970	902.936220	463.546991	410.004765	884.234607	471.840382	79.445556	880.548298	402.121902	417.054564	830.100060	71.000546	438.087374	867.230415	397.853881	78.893021	853.896201	72.082303	91.681950	969.479322	43.431282	433.866411	777.960598	53.660154	390.724123	796.898067	57.581998	126.951054	985.262811	43.905217	114.779122	857.849360	69.419250	361.565351	866.507232	72.686039	168.988422	897.099912	447.899938	262.212366	856.512606	447.153509	222.535476	
977	3.908000	871.585906	1253.513575	361.493468	857.481897	1258.169651	79.493426	777.635276	1314.069629	219.633892	976.079822	881.849527	343.715072	979.089797	874.610007	104.546711	734.527230	907.483876	209.318221	868.699312	801.329315	426.791430	886.119723	771.321774	25.670491	902.945042	463.550150	410.008967	884.245992	471.843272	79.435416	880.553365	402.116299	417.057872	830.112696	70.994303	438.069671	867.225409	397.851914	78.894012	853.763461	72.123803	91.616422	969.453931	43.420151	433.875769	777.954400	53.664267	390.714765	796.856463	57.945147	127.408385	985.269725	43.896645	114.773370	857.823133	69.407366	361.569852	866.506398	72.687842	168.986797	897.121966	447.888196	262.212336	856.517673	447.155267	222.526014	
978	3.912000	871.603489	1253.504276	361.479431	857.481599	1258.154035	79.490006	777.643919	1314.066410	219.632298	976.097345	881.841063	343.705982	979.093909	874.602556	104.539469	734.533310	907.482624	209.305629	868.712544	801.328421	426.822960	886.116743	771.314561	25.663262	902.957559	463.546365	410.015106	884.260297	471.835136	79.435818	880.565524	402.109861	417.055488	830.103397	70.994928	438.070863	867.237806	397.850990	78.892685	853.726745	72.117895	91.604635	969.458282	43.413781	433.888972	777.950644	53.674396	390.715986	796.844721	58.033798	127.527297	985.270619	43.891802	114.782222	857.825577	69.395527	361.561000	866.510868	72.678536	168.984070	897.131562	447.887242	262.190819	856.548667	447.154671	222.515464	
979	3.916000	871.624589	1253.498435	361.473501	857.492864	1258.136749	79.492390	777.655005	1314.066172	219.623640	976.108193	881.842136	343.704760	979.105473	874.591887	104.530126	734.535158	907.480896	209.293202	868.733466	801.349103	426.809847	886.136830	771.312714	25.661804	902.972579	463.542402	410.018891	884.261131	471.835643	79.435997	880.558729	402.099639	417.058825	830.114841	70.983112	438.086569	867.246866	397.855669	78.889295	853.727460	72.099507	91.617092	969.469249	43.411117	433.889955	777.956009	53.674132	390.716791	796.825111	58.046032	127.557725	985.266924	43.890018	114.794374	857.819796	69.394313	361.555427	866.517425	72.680943	168.985233	897.134125	447.903246	262.182117	856.545210	447.145045	222.523570	
